<?xml version="1.0" encoding="utf-8"?>
<!-- Generator: Adobe Illustrator 21.1.0, SVG Export Plug-In . SVG Version: 6.00 Build 0)  -->
<svg version="1.1" id="Layer_1" xmlns="http://www.w3.org/2000/svg" xmlns:xlink="http://www.w3.org/1999/xlink" x="0px" y="0px"
	 viewBox="0 0 515.4 266.2" style="enable-background:new 0 0 515.4 266.2;" xml:space="preserve">
<style type="text/css">
	.st0{fill:none;}
	.st1{fill:#73FF83;}
	.st2{fill:#00DD54;}
	.st3{fill:#686D77;}
</style>
<g>
	<g>
		<rect class="st0" width="515.4" height="266.2"/>
		<g>
			<g>
				<path class="st1" d="M197.4,78l-91.8,64.3V124l91.8-64.3V78z M197.4,96.4l-91.8,64.3V179l91.8-64.3V96.4z"/>
				<polygon class="st2" points="105.6,142.3 105.6,124 59.7,91.8 59.7,146.9 105.6,179 105.6,160.7 73.7,138.4 73.7,120 				"/>
			</g>
			<path class="st3" d="M245.7,130.8l-10.8,9.1c-3.4-3.6-7-5.6-11.9-5.6c-7.8,0-14,6.1-14,15.4c0,9.3,6.2,15.4,14,15.4
				c4.8,0,9-2.2,12.2-5.7l10.7,9.2c-5.3,6.7-13.1,10.5-22.4,10.5c-17.8,0-29.8-12.5-29.8-29.4c0-16.9,11.9-29.4,29.8-29.4
				C232.7,120.2,240.6,124,245.7,130.8z M395.5,130.8l-10.8,9.1c-3.4-3.6-7-5.6-11.9-5.6c-7.8,0-14,6.1-14,15.4
				c0,9.3,6.2,15.4,14,15.4c4.8,0,9-2.2,12.2-5.7l10.7,9.2c-5.3,6.7-13.1,10.5-22.4,10.5c-17.8,0-29.8-12.5-29.8-29.4
				c0-16.9,11.9-29.4,29.8-29.4C382.5,120.2,390.4,124,395.5,130.8z M334.7,142v35.6h-15.1v-30.8c0-8.1-4-12.5-10.9-12.5
				c-6.5,0-11.8,4.2-11.8,12.6v30.6h-15.1v-55.9h14.7v6.6c4-5.9,10.1-8.1,16.4-8.1C325.6,120.2,334.7,129,334.7,142z M417.5,127.7
				c4-5.5,9.9-7.5,16-7.5c12.7,0,21.8,8.8,21.8,21.8v35.6h-15.1v-30.8c0-8.1-4-12.5-10.9-12.5c-6.5,0-11.8,4.2-11.8,12.6v30.6h-15.1
				V96.4h15.1V127.7z M202.8,198.7h8.3v-6h1.6v13.7h-1.6v-6.1h-8.3v6.1h-1.6v-13.7h1.6V198.7z M237.4,199.5c0,4.1-3,7-7.1,7
				c-4.1,0-7.1-2.9-7.1-7c0-4.1,3-7,7.1-7C234.4,192.5,237.4,195.4,237.4,199.5z M224.9,199.5c0,3.3,2.3,5.5,5.4,5.5
				c3.1,0,5.4-2.2,5.4-5.5c0-3.3-2.3-5.5-5.4-5.5C227.3,194,224.9,196.2,224.9,199.5z M262.4,206.3h-1.6v-11.9l-4.8,10.4h-1.6
				l-4.7-10.3v11.8h-1.6v-13.7h2.4l4.8,10.3l4.8-10.3h2.4V206.3z M283.4,206.3h-9.6v-13.7h9.5v1.5h-7.9v4.6h7.7v1.5h-7.7v4.7h8
				V206.3z M337.7,206.3h-9.6v-13.7h9.5v1.5h-7.9v4.6h7.7v1.5h-7.7v4.7h8V206.3z M434.9,206.3h-9.6v-13.7h9.5v1.5h-7.9v4.6h7.7v1.5
				h-7.7v4.7h8V206.3z M316.5,195.3c-1.1-0.8-2.5-1.3-4.1-1.3c-2.1,0-3.5,0.9-3.5,2.5c0,1.3,1,2,3.2,2.2l1.3,0.2
				c2.3,0.3,4.3,1.2,4.3,3.6c0,2.7-2.5,4.1-5.4,4.1c-2,0-4.1-0.7-5.4-1.8l0.9-1.2c0.9,0.8,2.7,1.5,4.5,1.5c2.1,0,3.8-0.9,3.8-2.5
				c0-1.3-1.1-2-3.3-2.2l-1.4-0.2c-2.3-0.3-4-1.3-4-3.6c0-2.6,2.3-4,5.2-4c2.1,0,3.6,0.6,4.9,1.5L316.5,195.3z M454.6,195.3
				c-1.1-0.8-2.5-1.3-4.1-1.3c-2.1,0-3.5,0.9-3.5,2.5c0,1.3,1,2,3.2,2.2l1.3,0.2c2.3,0.3,4.3,1.2,4.3,3.6c0,2.7-2.5,4.1-5.4,4.1
				c-2,0-4.1-0.7-5.4-1.8l0.9-1.2c0.9,0.8,2.7,1.5,4.5,1.5c2.1,0,3.8-0.9,3.8-2.5c0-1.3-1.1-2-3.3-2.2l-1.4-0.2
				c-2.3-0.3-4-1.3-4-3.6c0-2.6,2.3-4,5.2-4c2.1,0,3.6,0.6,4.9,1.5L454.6,195.3z M353.8,192.7c3.1,0,4.8,1.4,4.8,3.9
				c0,2.4-1.8,3.9-4.7,3.9h-0.2l4.9,5.9h-1.9l-4.8-5.9h-1.7v5.9h-1.6v-13.7H353.8z M350.1,194.2v4.8h3.8c2.1,0,3.2-0.8,3.2-2.4
				c0-1.6-1.1-2.4-3.2-2.4H350.1z M374.9,206.3h-1.9l-5.5-13.7h1.7l4.8,12.1l4.8-12.1h1.6L374.9,206.3z M391.7,206.3h-1.6v-13.7h0.8
				h0.8V206.3z M414.9,195.3l-1.3,0.9c-0.9-1.4-2.5-2.2-4.3-2.2c-3.1,0-5.4,2.2-5.4,5.5c0,3.3,2.3,5.5,5.4,5.5
				c1.8,0,3.3-0.8,4.3-2.2l1.3,0.9c-1.1,1.7-3.2,2.8-5.5,2.8c-4.1,0-7.1-2.9-7.1-7c0-4.1,3-7,7.1-7
				C411.8,192.5,413.9,193.6,414.9,195.3z M271.5,105.2c0,5.4-4.2,9.6-9.6,9.6c-5.4,0-9.6-4.2-9.6-9.6c0-5.4,4.2-9.7,9.6-9.7
				C267.3,95.5,271.5,99.8,271.5,105.2z M269.4,177.6h-15.1v-55.9h7.5h7.5V177.6z"/>
		</g>
	</g>
	<g>
		<g>
			<path class="st3" d="M464.4,123c-0.5-0.3-1.1-0.6-1.9-0.6c-0.9,0-1.6,0.4-1.6,1.1c0,0.6,0.5,0.9,1.4,1l0.6,0.1c1,0.1,2,0.6,2,1.6
				c0,1.2-1.1,1.9-2.5,1.9c-0.9,0-1.9-0.3-2.5-0.8l0.4-0.6c0.4,0.4,1.2,0.7,2.1,0.7c1,0,1.7-0.4,1.7-1.1c0-0.6-0.5-0.9-1.5-1
				l-0.6-0.1c-1.1-0.1-1.8-0.6-1.8-1.7c0-1.2,1.1-1.9,2.4-1.9c1,0,1.7,0.3,2.3,0.7L464.4,123z"/>
			<path class="st3" d="M472.9,128h-0.7v-5.5l-2.2,4.8h-0.8l-2.2-4.7v5.4h-0.7v-6.3h1.1l2.2,4.7l2.2-4.7h1.1V128z"/>
		</g>
	</g>
</g>
</svg>
